<?xml version="1.0" encoding="UTF-8" standalone="no"?>
<svg
   xmlns:dc="http://purl.org/dc/elements/1.1/"
   xmlns:cc="http://creativecommons.org/ns#"
   xmlns:rdf="http://www.w3.org/1999/02/22-rdf-syntax-ns#"
   xmlns:svg="http://www.w3.org/2000/svg"
   xmlns="http://www.w3.org/2000/svg"
   xmlns:sodipodi="http://sodipodi.sourceforge.net/DTD/sodipodi-0.dtd"
   xmlns:inkscape="http://www.inkscape.org/namespaces/inkscape"
   width="19.069468mm"
   height="26.792305mm"
   viewBox="0 0 19.069468 26.792305"
   version="1.1"
   id="svg8"
   inkscape:version="0.92.3 (2405546, 2018-03-11)"
   sodipodi:docname="ecoge.svg">
  <defs
     id="defs2" />
  <sodipodi:namedview
     id="base"
     pagecolor="#ffffff"
     bordercolor="#666666"
     borderopacity="1.0"
     inkscape:pageopacity="0.0"
     inkscape:pageshadow="2"
     inkscape:zoom="5.7431563"
     inkscape:cx="117.29796"
     inkscape:cy="9.0909657"
     inkscape:document-units="mm"
     inkscape:current-layer="layer1"
     inkscape:document-rotation="0"
     showgrid="false"
     inkscape:window-width="3840"
     inkscape:window-height="2066"
     inkscape:window-x="2869"
     inkscape:window-y="-11"
     inkscape:window-maximized="1" />
  <metadata
     id="metadata5">
    <rdf:RDF>
      <cc:Work
         rdf:about="">
        <dc:format>image/svg+xml</dc:format>
        <dc:type
           rdf:resource="http://purl.org/dc/dcmitype/StillImage" />
        <dc:title />
      </cc:Work>
    </rdf:RDF>
  </metadata>
  <g
     inkscape:label="Layer 1"
     inkscape:groupmode="layer"
     id="layer1"
     transform="translate(-45.318026,-35.300443)">
    <g
       id="g5099">
      <path
         inkscape:connector-curvature="0"
         id="path5093"
         transform="matrix(0.26458333,0,0,0.26458333,37.190727,25.148726)"
         d="m 61.769531,38.369141 c -0.710178,-0.0067 -1.195312,0.06445 -1.195312,0.06445 0,0 -0.0293,2.275134 -0.0293,4.570312 0,2.103183 -0.002,4.574219 -0.002,4.574219 0,0 1.491976,0.315875 2.751953,0.570313 9.261192,1.870226 14.769787,9.004897 14.65625,18.982421 -0.110105,9.677356 -5.439549,16.842488 -13.484375,18.128907 -1.961307,0.313621 -3.910156,0.666015 -3.910156,0.666015 0,0 -0.01172,2.397886 -0.01172,4.833985 0,2.323551 0.03711,4.871093 0.03711,4.871093 0,0 1.401417,0.0032 2.712891,0.0059 15.248171,0.03092 25.466877,16.451954 16.71289,26.855474 -2.797578,3.32474 -7.812108,5.56467 -14.71289,6.57031 -2.374999,0.3461 -4.744141,0.54688 -4.744141,0.54688 0,-1e-5 -0.0059,2.61462 -0.0059,5.08398 0,2.46937 -0.04492,4.93555 -0.04492,4.93555 0,0 2.204033,0.002 4.363281,0.002 6.274764,0 13.968334,-2.57397 18.875,-6.31641 15.43544,-11.773 12.984436,-32.87432 -4.59375,-39.546875 -2.377787,-0.902593 -4.90625,-1.785156 -4.90625,-1.785156 0,0 1.415273,-0.847305 2.679688,-1.675781 8.28393,-5.42784 12.086698,-12.705972 12.109375,-23.175782 0.138039,-4.927268 -0.600916,-8.605891 -2.732422,-12.875 -1.375348,-2.754629 -3.175781,-5.642578 -3.175781,-5.642578 0,0 3.034277,0.01758 6.222656,0.01758 2.71237,0 5.894531,-0.01758 5.894531,-0.01758 0,0 1.935672,-2.064445 3.72461,-3.896484 1.911721,-1.95778 3.830081,-3.837891 3.830081,-3.837891 0,0 -8.691712,-0.333339 -17.376957,-0.58789 C 75.860206,40.011111 66.291759,39.452911 64.316317,38.771571 63.415395,38.460838 62.47962,38.37595 61.769442,38.369228 Z"
         style="fill:#020000;fill-opacity:1;stroke-width:0.99999899" />
      <path
         inkscape:connector-curvature="0"
         id="path5091"
         transform="matrix(0.26458333,0,0,0.26458333,37.190727,25.148726)"
         d="m 51.089844,48.267578 c -0.76743,0.01335 -1.916189,0.151025 -2.794922,0.314453 -12.463666,2.318004 -20.071008,13.488478 -16.830078,23.308594 1.620102,4.90896 7.625396,10.534357 13.021484,12.197266 5.488777,1.691527 7.736328,-0.0039 7.736328,-0.0039 0,0 -2.249319,-0.406185 -3.435547,-0.882812 -0.901609,-0.362267 -1.817184,-0.582812 -2.945312,-1.820313 -6.814553,-7.475221 -4.641375,-26.771597 2.796875,-30.951171 1.627619,-0.914567 3.734375,-2.13086 3.734375,-2.13086 0,0 -0.515773,-0.0446 -1.283203,-0.03125 z"
         style="fill:#af8700;fill-opacity:1;stroke-width:0.99999899" />
      <path
         inkscape:connector-curvature="0"
         id="path8145"
         transform="matrix(0.26458333,0,0,0.26458333,37.190727,25.148726)"
         d="M 42.708984,99.841797 C 36.713088,99.655914 30.384063,108.81305 32.40625,115.5625 c 1.497831,4.99932 4.482197,8.67154 8.978516,11.04688 2.0129,1.06338 5.460153,1.90082 7.660156,1.86132 2.20001,-0.0395 3.100001,-0.27832 2,-0.53125 -7.300891,-1.67884 -9.439683,-2.61859 -12.292969,-5.4082 -5.481592,-5.35928 -4.125052,-12.35471 2.792969,-14.4043 3.663976,-1.08551 5,-2.44839 5,-5.09961 0,-1.71591 -0.72116,-2.53874 -2.644531,-3.02148 -0.394191,-0.09894 -0.79168,-0.151671 -1.191407,-0.164063 z"
         style="fill:#af8700;fill-opacity:1;stroke-width:0.99999899" />
    </g>
  </g>
</svg>
